<?xml version="1.0" encoding="UTF-8"?>
<svg xmlns="http://www.w3.org/2000/svg" viewBox="0 0 612.001 612.001">
  <path
    fill="#ffffff"
    d="M461.327,209.858c-6.039,7.651-12.918,9.146-16.556,9.346
		c-1.198,0.066-2.033,1.206-1.706,2.36c1.868,6.582,3.768,24.711-28.687,31.77c-30.438,6.615-48.844,30.29-60.863,42.313
		c-9.233,9.225-21.723,13.495-34.183,16.299c-12.729,2.864-25.341,5.37-35.384,14.415c-10.577,9.527-25.495,61.985-28.027,71.104
		c-0.222,0.801-0.951,1.352-1.783,1.352h-15.621c-0.877,0-1.636-0.614-1.817-1.473l-7.569-35.803
		c-0.318-1.504-73.698,4.534-79.347-28.22c-0.198-1.149-1.359-1.862-2.456-1.466c-7.056,2.546-29.692,8.81-41.91-10.122
		c-8.663-13.423-6.362-25.955-5.155-30.282c0.25-0.896-0.2-1.828-1.055-2.196c-6.225-2.677-28.719-15.289-25.669-56.784
		c2.461-33.448,25.085-48.273,21.922-53.417c-9.124-14.837-1.193-39.431,17.5-44.921c0.753-0.221,1.288-0.888,1.359-1.67
		l0.789-8.719c2.596-30.743,42.991-50.226,70.455-37.445c1.059,0.493,2.318-0.032,2.67-1.145
		c3.438-10.898,10.377-13.898,12.226-14.938c8.515-4.791,19.572-4.199,28.374-0.586c0.712,0.292,1.523,0.114,2.048-0.448
		c2.501-2.679,12.756-11.182,29.739-11.182c17.42,0,26.275,8.465,29.371,10.835c0.569,0.435,1.334,0.513,1.972,0.188
		c3.919-2.004,18.228-8.411,32.554-3.476c10.818,3.732,16.959,13.578,18.893,17.161c0.413,0.766,1.281,1.157,2.128,0.957
		c5.137-1.217,22.902-4.629,37.827,2.111c15.772,7.13,20.693,17.433,21.948,20.887c0.255,0.703,0.914,1.174,1.662,1.204
		c3.42,0.136,12.858,0.964,18.691,5.866c10.3,8.66,9.294,15.488,8.108,18.41c-0.361,0.89,0.038,1.91,0.901,2.333
		c4.704,2.307,17.892,9.927,26.073,26.112C472.011,182.884,467.505,202.031,461.327,209.858z"
  />
</svg>
